<?xml version="1.0" encoding="utf-8"?>
<!-- Generator: Adobe Illustrator 25.2.3, SVG Export Plug-In . SVG Version: 6.00 Build 0)  -->
<svg version="1.1" id="Layer_1" xmlns="http://www.w3.org/2000/svg" xmlns:xlink="http://www.w3.org/1999/xlink" x="0px" y="0px"
	 viewBox="0 0 384.6 97.4" style="enable-background:new 0 0 384.6 97.4;" xml:space="preserve">
<style type="text/css">
	.st0{fill-rule:evenodd;clip-rule:evenodd;fill:#FCB71B;}
	.st1{fill-rule:evenodd;clip-rule:evenodd;fill:#FFFFFF;}
</style>
<g id="pitt">
	<g>
		<path class="st0" d="M22.6,13H0.3v47h12.3V44.4h10.1c10.3,0,17-4.5,17-16.2C39.6,17,31.3,13,22.6,13z M20.7,34.9h-8.2V22.8h8.2
			c3.8,0,6.6,1.8,6.6,6.2C27.3,33.3,24.6,34.9,20.7,34.9z M43.7,60.1H56V13H43.7V60.1z M59.5,23.6h14v36.5h12.3V23.6h14V13H59.5
			V23.6z M103.5,13v10.5h14v36.5h12.3V23.6h14V13H103.5z"/>
	</g>
</g>
<g id="engineering_2_">
	<g>
		<path class="st0" d="M180.6,55.3h7.8v-1.6h-7.8v-7.5h8.4v-1.6h-10.2v20.6h10.5v-1.6h-8.6V55.3z M208.4,62.7L208.4,62.7l-7.9-17.9
			H198v20.6h1.8V47.4h0.1l7.9,17.9h2.5V44.7h-1.9V62.7z M225,56.4h4.9v0.4c0,4.8-1.5,7.3-4.3,7.3c-2.9,0-4.7-2.4-4.7-9.1
			c0-6.7,1.8-9.1,4.7-9.1c2.7,0,4.1,2.1,4.1,4.6h1.9c-0.2-3.5-2-6.1-5.9-6.1c-4.2,0-6.6,3.3-6.6,10.6c0,7.4,2.4,10.6,6.6,10.6
			c2,0,3.9-1.5,4.5-3.7h0.1v3.4h1.4V54.8H225V56.4z M242,65.3h1.9V44.7H242V65.3z M264.9,62.7L264.9,62.7L257,44.7h-2.5v20.6h1.8
			V47.4h0.1l7.9,17.9h2.5V44.7h-1.8V62.7z M278.7,55.3h7.8v-1.6h-7.8v-7.5h8.4v-1.6h-10.2v20.6h10.5v-1.6h-8.6V55.3z M298.7,55.3
			h7.8v-1.6h-7.8v-7.5h8.4v-1.6h-10.2v20.6h10.5v-1.6h-8.6V55.3z M327.8,60c-0.1-3.2-1-4.6-3.5-4.9v-0.1c2.7-0.5,3.7-2.7,3.7-5.2
			c0-3.2-1.9-5.2-5.3-5.2h-6.2v20.6h1.8v-9.4h3.5c3.3,0,4,1.2,4.1,4.8l0.1,1.7c0,1.1,0.1,2.2,0.5,2.9h2.2c-0.7-0.8-0.8-1.9-0.9-3
			L327.8,60z M321.6,54.4h-3.2v-8.1h3.4c3.3,0,4.4,1.5,4.4,4C326.2,53,324.5,54.4,321.6,54.4z M338.3,65.3h1.9V44.7h-1.9V65.3z
			 M361.2,62.7L361.2,62.7l-7.9-17.9h-2.5v20.6h1.8V47.4h0.1l7.9,17.9h2.5V44.7h-1.8V62.7z M377.1,54.8v1.6h4.9v0.4
			c0,4.8-1.5,7.3-4.3,7.3c-2.9,0-4.7-2.4-4.7-9.1c0-6.7,1.8-9.1,4.7-9.1c2.7,0,4.1,2.1,4.1,4.6h1.9c-0.2-3.5-2-6.1-5.9-6.1
			c-4.2,0-6.6,3.3-6.6,10.6c0,7.4,2.4,10.6,6.6,10.6c2,0,3.9-1.5,4.5-3.7h0.1v3.4h1.4V54.8H377.1z"/>
	</g>
</g>
<g id="swanson">
	<g>
		<path class="st1" d="M192.8,20.7c-4.9-1.1-9.7-1.7-9.7-5.4c0-4,3.4-5.2,6.8-5.2c4.2,0,7.1,1.9,7.5,6.2h3.8
			c-0.3-6.7-5-9.6-11.2-9.6c-5.5,0-11,2.7-11,8.9c0,5.6,4.9,7,9.7,8c4.9,1.1,9.7,1.8,9.7,6c0,4.4-4,5.5-7.7,5.5
			c-4.6,0-8.9-2.2-8.9-7.3H178c0,7.4,5.7,10.7,12.6,10.7c5.5,0,11.9-2.6,11.9-9.1C202.5,23.5,197.6,21.8,192.8,20.7z M238.1,7.4
			l-6.2,25.3h-0.1l-6.7-25.3h-4.4l-6.8,25.3h-0.1l-6-25.3h-4.1l7.8,30.4h4.2l7-25.5h0.1l6.9,25.5h4.2l8.1-30.4H238.1z M251.9,7.4
			L240,37.8h4.2l3.4-9.2h12.9l3.3,9.2h4.5L256.4,7.4H251.9z M248.9,25.2L254,11h0.1l5.1,14.2H248.9z M291.6,32L291.6,32L275.5,7.4
			h-4.3v30.4h3.8V13.4h0.1L291,37.8h4.4V7.4h-3.8V32z M314.5,20.7c-4.9-1.1-9.7-1.7-9.7-5.4c0-4,3.4-5.2,6.8-5.2
			c4.2,0,7.1,1.9,7.5,6.2h3.8c-0.3-6.7-5-9.6-11.2-9.6c-5.5,0-11,2.7-11,8.9c0,5.6,4.9,7,9.7,8c4.9,1.1,9.7,1.8,9.7,6
			c0,4.4-4,5.5-7.7,5.5c-4.6,0-8.9-2.2-8.9-7.3h-3.8c0,7.4,5.7,10.7,12.6,10.7c5.5,0,11.9-2.6,11.9-9.1
			C324.2,23.5,319.4,21.8,314.5,20.7z M341.1,6.7c-9.7,0-14.6,7.7-14.6,15.9c0,8.3,4.9,15.9,14.6,15.9c9.7,0,14.6-7.7,14.6-15.9
			C355.7,14.3,350.8,6.7,341.1,6.7z M341.1,35.1c-7.4,0-10.5-6.4-10.5-12.5c0-6.1,3.1-12.5,10.5-12.5c7.4,0,10.5,6.4,10.5,12.5
			C351.6,28.7,348.5,35.1,341.1,35.1z M379.9,7.4V32h-0.1l-16-24.6h-4.3v30.4h3.8V13.4h0.1l15.9,24.4h4.4V7.4H379.9z"/>
	</g>
</g>
<g id="Shape_4_2_">
	<g>
		<rect x="159.8" y="0.1" class="st1" width="2.3" height="72.4"/>
	</g>
</g>
<g id="Mechanical__x26__Materials_Science">
	<g>
		<path class="st1" d="M6.7,94.6L6.7,94.6l-3.3-9.1H0.6v11.7h1.9v-9h0l3.2,9h1.7l3.2-9h0v9h1.9V85.5H9.8L6.7,94.6z M20.1,92H26v-1.7
			h-5.9v-3.1h6.4v-1.8H18v11.7h8.5v-1.8h-6.5V92z M38.9,93.9c-0.1,0.4-0.3,0.7-0.6,1c-0.3,0.3-0.6,0.5-0.9,0.7
			c-0.3,0.2-0.8,0.2-1.2,0.2c-0.6,0-1.2-0.1-1.6-0.4c-0.5-0.3-0.8-0.6-1.1-1S33,93.5,32.8,93c-0.1-0.5-0.2-1.1-0.2-1.6
			c0-0.6,0.1-1.1,0.2-1.6c0.1-0.5,0.3-1,0.6-1.4s0.7-0.8,1.1-1c0.5-0.3,1-0.4,1.6-0.4c0.4,0,0.8,0.1,1.1,0.2
			c0.3,0.1,0.6,0.3,0.8,0.5c0.2,0.2,0.4,0.5,0.6,0.7c0.2,0.3,0.3,0.6,0.4,0.9h2c-0.1-0.6-0.2-1.2-0.5-1.7c-0.3-0.5-0.6-0.9-1.1-1.3
			c-0.4-0.3-1-0.6-1.5-0.8c-0.6-0.2-1.2-0.3-1.8-0.3c-0.9,0-1.7,0.2-2.3,0.5s-1.3,0.8-1.8,1.3c-0.5,0.6-0.8,1.2-1.1,1.9
			c-0.3,0.7-0.4,1.5-0.4,2.4c0,0.8,0.1,1.6,0.4,2.4c0.3,0.7,0.6,1.4,1.1,1.9c0.5,0.6,1.1,1,1.8,1.3c0.7,0.3,1.5,0.5,2.3,0.5
			c0.7,0,1.4-0.1,1.9-0.3c0.6-0.2,1.1-0.6,1.5-1c0.4-0.4,0.8-0.9,1-1.5c0.3-0.6,0.4-1.2,0.4-1.9h-2C39.1,93.1,39,93.5,38.9,93.9z
			 M53.2,90.1h-5.3v-4.6h-2v11.7h2v-5.3h5.3v5.3h2V85.5h-2V90.1z M63.7,85.5l-4.5,11.7h2.1l1.1-3.1h4.7l1.1,3.1h2.2l-4.5-11.7H63.7z
			 M62.9,92.5l1.8-5h0l1.8,5H62.9z M81.8,94.1L81.8,94.1l-5.4-8.6h-2.2v11.7h1.9v-8.6h0l5.3,8.6h2.2V85.5h-1.9V94.1z M89,97.2h2
			V85.5h-2V97.2z M104.1,93.9c-0.1,0.4-0.3,0.7-0.6,1c-0.3,0.3-0.6,0.5-0.9,0.7c-0.4,0.2-0.8,0.2-1.2,0.2c-0.6,0-1.2-0.1-1.6-0.4
			c-0.5-0.3-0.8-0.6-1.1-1C98.4,94,98.2,93.5,98,93c-0.1-0.5-0.2-1.1-0.2-1.6c0-0.6,0.1-1.1,0.2-1.6c0.1-0.5,0.3-1,0.6-1.4
			c0.3-0.4,0.7-0.8,1.1-1c0.5-0.3,1-0.4,1.6-0.4c0.4,0,0.8,0.1,1.1,0.2c0.3,0.1,0.6,0.3,0.8,0.5c0.2,0.2,0.4,0.5,0.6,0.7
			c0.2,0.3,0.3,0.6,0.4,0.9h2c-0.1-0.6-0.2-1.2-0.5-1.7s-0.6-0.9-1.1-1.3c-0.4-0.3-1-0.6-1.5-0.8c-0.6-0.2-1.2-0.3-1.8-0.3
			c-0.9,0-1.7,0.2-2.3,0.5c-0.7,0.3-1.3,0.8-1.8,1.3c-0.5,0.6-0.8,1.2-1.1,1.9c-0.3,0.7-0.4,1.5-0.4,2.4c0,0.8,0.1,1.6,0.4,2.4
			c0.3,0.7,0.6,1.4,1.1,1.9c0.5,0.6,1.1,1,1.8,1.3c0.7,0.3,1.5,0.5,2.3,0.5c0.7,0,1.4-0.1,1.9-0.3c0.6-0.2,1.1-0.6,1.5-1
			c0.4-0.4,0.8-0.9,1-1.5c0.3-0.6,0.4-1.2,0.5-1.9h-2C104.3,93.1,104.2,93.5,104.1,93.9z M114.2,85.5l-4.5,11.7h2.1l1.1-3.1h4.7
			l1.1,3.1h2.2l-4.5-11.7H114.2z M113.5,92.5l1.8-5h0l1.8,5H113.5z M126.9,85.5h-2v11.7h8v-1.8h-5.9V85.5z M155.3,93.1
			c0.1-0.5,0.2-1,0.3-1.5H154c0,0.4-0.1,0.7-0.2,0.9c-0.1,0.2-0.1,0.4-0.2,0.6l-1.8-2.2c0.3-0.2,0.6-0.3,0.8-0.5
			c0.3-0.2,0.5-0.4,0.7-0.7c0.2-0.2,0.3-0.5,0.5-0.8c0.1-0.3,0.2-0.6,0.2-1c0-0.5-0.1-0.9-0.2-1.2c-0.2-0.3-0.4-0.6-0.6-0.9
			c-0.3-0.2-0.6-0.4-0.9-0.5c-0.4-0.1-0.7-0.2-1.1-0.2c-0.4,0-0.8,0.1-1.1,0.2c-0.3,0.1-0.7,0.3-0.9,0.6c-0.3,0.2-0.5,0.5-0.6,0.9
			c-0.1,0.3-0.2,0.7-0.2,1.1c0,0.3,0,0.5,0.1,0.7c0.1,0.2,0.2,0.4,0.3,0.7c0.1,0.2,0.2,0.4,0.4,0.6c0.1,0.2,0.3,0.4,0.4,0.6
			c-0.3,0.2-0.7,0.4-1,0.6c-0.3,0.2-0.6,0.5-0.9,0.7c-0.3,0.3-0.5,0.6-0.6,0.9c-0.2,0.3-0.2,0.7-0.2,1.1c0,0.5,0.1,1,0.3,1.5
			c0.2,0.4,0.4,0.8,0.8,1.1c0.3,0.3,0.7,0.5,1.2,0.7c0.5,0.2,0.9,0.2,1.5,0.2c0.7,0,1.3-0.1,1.8-0.4c0.5-0.2,1-0.6,1.4-1.2l1.1,1.3
			h2.3l-2.2-2.7C154.9,94,155.2,93.6,155.3,93.1z M150.2,86.9c0.2-0.2,0.5-0.3,0.9-0.3c0.4,0,0.6,0.1,0.9,0.4c0.2,0.3,0.3,0.6,0.3,1
			c0,0.2,0,0.4-0.1,0.6c-0.1,0.2-0.2,0.4-0.3,0.5c-0.1,0.1-0.3,0.3-0.4,0.4c-0.2,0.1-0.3,0.2-0.5,0.4c-0.1-0.1-0.2-0.3-0.4-0.4
			c-0.1-0.2-0.2-0.3-0.3-0.5c-0.1-0.2-0.2-0.3-0.3-0.5c-0.1-0.2-0.1-0.4-0.1-0.5C149.8,87.5,149.9,87.2,150.2,86.9z M152.3,95
			c-0.1,0.1-0.3,0.3-0.4,0.4c-0.2,0.1-0.4,0.2-0.6,0.3c-0.2,0.1-0.5,0.1-0.9,0.1c-0.5,0-1-0.2-1.4-0.5c-0.4-0.3-0.5-0.8-0.5-1.5
			c0-0.3,0.1-0.6,0.2-0.9c0.1-0.2,0.3-0.4,0.5-0.6c0.2-0.2,0.4-0.3,0.6-0.4c0.2-0.1,0.4-0.2,0.6-0.3l2.3,2.8
			C152.5,94.7,152.4,94.9,152.3,95z M177.1,94.6L177.1,94.6l-3.3-9.1H171v11.7h1.9v-9h0l3.2,9h1.7l3.2-9h0v9h1.9V85.5h-2.8
			L177.1,94.6z M191.6,85.5l-4.5,11.7h2.1l1.1-3.1h4.7l1.1,3.1h2.2l-4.5-11.7H191.6z M190.8,92.5l1.8-5h0l1.8,5H190.8z M199.6,87.2
			h3.7v9.9h2v-9.9h3.7v-1.8h-9.5V87.2z M215.3,92h5.9v-1.7h-5.9v-3.1h6.4v-1.8h-8.4v11.7h8.5v-1.8h-6.5V92z M235.7,94.1
			c0-0.5-0.1-0.8-0.2-1.1c-0.1-0.3-0.3-0.6-0.4-0.7c-0.2-0.2-0.4-0.3-0.6-0.4c-0.2-0.1-0.4-0.1-0.6-0.2v0c0.1,0,0.3-0.1,0.5-0.2
			c0.2-0.1,0.4-0.3,0.6-0.5c0.2-0.2,0.4-0.5,0.6-0.9c0.2-0.4,0.2-0.8,0.2-1.4c0-1-0.3-1.8-1-2.3c-0.6-0.6-1.6-0.8-2.9-0.8h-5.6v11.7
			h2v-4.8h3c0.5,0,0.9,0.1,1.2,0.2c0.3,0.1,0.5,0.3,0.7,0.6c0.2,0.3,0.3,0.6,0.4,1c0.1,0.4,0.1,0.8,0.1,1.4c0,0.3,0,0.6,0,0.9
			c0,0.3,0.1,0.6,0.3,0.8h2.2c-0.2-0.2-0.4-0.6-0.5-1.2C235.7,95.4,235.7,94.8,235.7,94.1z M233.3,90.3c-0.3,0.3-0.8,0.5-1.5,0.5
			h-3.4v-3.6h3.3c0.3,0,0.5,0,0.8,0.1c0.2,0,0.5,0.1,0.7,0.3c0.2,0.1,0.3,0.3,0.5,0.5c0.1,0.2,0.2,0.5,0.2,0.9
			C233.8,89.6,233.7,90,233.3,90.3z M240.8,97.2h2V85.5h-2V97.2z M251.4,85.5l-4.5,11.7h2.1l1.1-3.1h4.7l1.1,3.1h2.2l-4.5-11.7
			H251.4z M250.6,92.5l1.8-5h0l1.8,5H250.6z M264.1,85.5h-2v11.7h8v-1.8h-5.9V85.5z M282.5,92c-0.2-0.3-0.4-0.5-0.7-0.7
			c-0.3-0.2-0.6-0.4-1-0.5c-0.2,0-0.4-0.1-0.8-0.2c-0.4-0.1-0.7-0.2-1.1-0.3c-0.4-0.1-0.7-0.2-1-0.3c-0.3-0.1-0.5-0.1-0.5-0.1
			c-0.4-0.1-0.8-0.3-1-0.5c-0.3-0.2-0.4-0.6-0.4-1c0-0.3,0.1-0.5,0.2-0.7c0.1-0.2,0.3-0.4,0.5-0.5c0.2-0.1,0.4-0.2,0.7-0.2
			c0.3,0,0.5-0.1,0.7-0.1c0.7,0,1.3,0.2,1.7,0.5c0.5,0.3,0.7,0.8,0.8,1.6h2c0-0.6-0.1-1.1-0.4-1.6c-0.2-0.5-0.6-0.9-1-1.2
			c-0.4-0.3-0.9-0.6-1.4-0.7c-0.5-0.2-1.1-0.2-1.7-0.2c-0.5,0-1,0.1-1.6,0.2c-0.5,0.1-1,0.3-1.4,0.6c-0.4,0.3-0.7,0.6-1,1.1
			c-0.2,0.4-0.4,0.9-0.4,1.5c0,0.3,0,0.6,0.1,0.9c0.1,0.3,0.2,0.6,0.4,0.8c0.2,0.3,0.5,0.5,0.8,0.7c0.3,0.2,0.8,0.4,1.2,0.5
			c0.8,0.2,1.5,0.4,2,0.5c0.6,0.1,1,0.3,1.4,0.4c0.2,0.1,0.5,0.2,0.7,0.5c0.2,0.2,0.3,0.5,0.3,1c0,0.2,0,0.4-0.1,0.6
			c-0.1,0.2-0.2,0.4-0.4,0.6c-0.2,0.2-0.5,0.3-0.8,0.4c-0.3,0.1-0.7,0.2-1.1,0.2c-0.4,0-0.8,0-1.2-0.1c-0.4-0.1-0.7-0.2-0.9-0.4
			c-0.3-0.2-0.5-0.5-0.6-0.8c-0.2-0.3-0.2-0.7-0.2-1.1h-2c0,0.7,0.1,1.3,0.4,1.9c0.3,0.5,0.6,1,1,1.3c0.4,0.3,1,0.6,1.5,0.8
			c0.6,0.2,1.2,0.2,1.9,0.2c0.6,0,1.1-0.1,1.7-0.2c0.6-0.1,1.1-0.3,1.5-0.6c0.4-0.3,0.8-0.7,1.1-1.1c0.3-0.5,0.4-1,0.4-1.7
			c0-0.3,0-0.6-0.1-0.9C282.9,92.5,282.7,92.3,282.5,92z M306.2,92c-0.2-0.3-0.4-0.5-0.7-0.7c-0.3-0.2-0.6-0.4-1-0.5
			c-0.2,0-0.4-0.1-0.8-0.2c-0.4-0.1-0.7-0.2-1.1-0.3c-0.4-0.1-0.7-0.2-1-0.3c-0.3-0.1-0.5-0.1-0.5-0.1c-0.4-0.1-0.8-0.3-1-0.5
			c-0.3-0.2-0.4-0.6-0.4-1c0-0.3,0.1-0.5,0.2-0.7c0.1-0.2,0.3-0.4,0.5-0.5c0.2-0.1,0.4-0.2,0.7-0.2c0.3,0,0.5-0.1,0.7-0.1
			c0.7,0,1.3,0.2,1.8,0.5c0.5,0.3,0.7,0.8,0.8,1.6h2c0-0.6-0.1-1.1-0.4-1.6c-0.2-0.5-0.6-0.9-1-1.2c-0.4-0.3-0.9-0.6-1.4-0.7
			c-0.5-0.2-1.1-0.2-1.7-0.2c-0.5,0-1,0.1-1.6,0.2c-0.5,0.1-1,0.3-1.4,0.6c-0.4,0.3-0.7,0.6-1,1.1c-0.2,0.4-0.4,0.9-0.4,1.5
			c0,0.3,0,0.6,0.1,0.9c0.1,0.3,0.2,0.6,0.4,0.8c0.2,0.3,0.5,0.5,0.8,0.7c0.3,0.2,0.7,0.4,1.2,0.5c0.8,0.2,1.5,0.4,2,0.5
			c0.5,0.1,1,0.3,1.4,0.4c0.2,0.1,0.5,0.2,0.7,0.5c0.2,0.2,0.3,0.5,0.3,1c0,0.2,0,0.4-0.1,0.6c-0.1,0.2-0.2,0.4-0.4,0.6
			c-0.2,0.2-0.5,0.3-0.8,0.4c-0.3,0.1-0.7,0.2-1.1,0.2c-0.4,0-0.8,0-1.2-0.1c-0.4-0.1-0.7-0.2-0.9-0.4c-0.3-0.2-0.5-0.5-0.6-0.8
			c-0.2-0.3-0.2-0.7-0.2-1.1h-2c0,0.7,0.1,1.3,0.4,1.9c0.3,0.5,0.6,1,1,1.3c0.4,0.3,1,0.6,1.5,0.8c0.6,0.2,1.2,0.2,1.9,0.2
			c0.6,0,1.1-0.1,1.7-0.2c0.6-0.1,1.1-0.3,1.5-0.6c0.4-0.3,0.8-0.7,1.1-1.1c0.3-0.5,0.4-1,0.4-1.7c0-0.3,0-0.6-0.1-0.9
			C306.5,92.5,306.4,92.3,306.2,92z M319.1,93.9c-0.1,0.4-0.3,0.7-0.6,1c-0.3,0.3-0.6,0.5-0.9,0.7c-0.3,0.2-0.8,0.2-1.2,0.2
			c-0.6,0-1.2-0.1-1.6-0.4c-0.5-0.3-0.8-0.6-1.1-1c-0.3-0.4-0.5-0.9-0.6-1.4c-0.1-0.5-0.2-1.1-0.2-1.6c0-0.6,0.1-1.1,0.2-1.6
			c0.1-0.5,0.3-1,0.6-1.4c0.3-0.4,0.7-0.8,1.1-1c0.5-0.3,1-0.4,1.6-0.4c0.4,0,0.8,0.1,1.1,0.2c0.3,0.1,0.6,0.3,0.8,0.5
			c0.2,0.2,0.4,0.5,0.6,0.7c0.2,0.3,0.3,0.6,0.4,0.9h2c-0.1-0.6-0.2-1.2-0.5-1.7c-0.3-0.5-0.6-0.9-1.1-1.3c-0.4-0.3-1-0.6-1.5-0.8
			c-0.6-0.2-1.2-0.3-1.8-0.3c-0.9,0-1.7,0.2-2.4,0.5c-0.7,0.3-1.3,0.8-1.8,1.3c-0.5,0.6-0.8,1.2-1.1,1.9c-0.3,0.7-0.4,1.5-0.4,2.4
			c0,0.8,0.1,1.6,0.4,2.4c0.3,0.7,0.6,1.4,1.1,1.9c0.5,0.6,1.1,1,1.8,1.3c0.7,0.3,1.5,0.5,2.4,0.5c0.7,0,1.4-0.1,1.9-0.3
			c0.6-0.2,1.1-0.6,1.5-1c0.4-0.4,0.8-0.9,1-1.5c0.3-0.6,0.4-1.2,0.4-1.9h-2C319.3,93.1,319.2,93.5,319.1,93.9z M326.1,97.2h2V85.5
			h-2V97.2z M335.6,92h5.9v-1.7h-5.9v-3.1h6.4v-1.8h-8.4v11.7h8.5v-1.8h-6.5V92z M354.1,94.1L354.1,94.1l-5.4-8.6h-2.2v11.7h1.9
			v-8.6h0.1l5.3,8.6h2.2V85.5h-1.9V94.1z M369,93.9c-0.1,0.4-0.3,0.7-0.6,1c-0.2,0.3-0.5,0.5-0.9,0.7c-0.3,0.2-0.8,0.2-1.2,0.2
			c-0.6,0-1.2-0.1-1.6-0.4c-0.5-0.3-0.8-0.6-1.1-1c-0.3-0.4-0.5-0.9-0.6-1.4c-0.1-0.5-0.2-1.1-0.2-1.6c0-0.6,0.1-1.1,0.2-1.6
			c0.1-0.5,0.3-1,0.6-1.4c0.3-0.4,0.7-0.8,1.1-1c0.5-0.3,1-0.4,1.6-0.4c0.4,0,0.8,0.1,1.1,0.2c0.3,0.1,0.6,0.3,0.8,0.5
			c0.2,0.2,0.4,0.5,0.6,0.7c0.2,0.3,0.3,0.6,0.4,0.9h2c-0.1-0.6-0.2-1.2-0.5-1.7c-0.3-0.5-0.6-0.9-1.1-1.3c-0.4-0.3-1-0.6-1.5-0.8
			c-0.6-0.2-1.2-0.3-1.9-0.3c-0.9,0-1.7,0.2-2.3,0.5c-0.7,0.3-1.3,0.8-1.8,1.3c-0.5,0.6-0.8,1.2-1.1,1.9c-0.3,0.7-0.4,1.5-0.4,2.4
			c0,0.8,0.1,1.6,0.4,2.4c0.3,0.7,0.6,1.4,1.1,1.9c0.5,0.6,1.1,1,1.8,1.3c0.7,0.3,1.5,0.5,2.3,0.5c0.7,0,1.4-0.1,1.9-0.3
			c0.6-0.2,1.1-0.6,1.5-1c0.4-0.4,0.8-0.9,1-1.5c0.3-0.6,0.4-1.2,0.5-1.9h-2C369.3,93.1,369.2,93.5,369,93.9z M378.1,95.4V92h5.9
			v-1.7h-5.9v-3.1h6.4v-1.8H376v11.7h8.5v-1.8H378.1z"/>
	</g>
</g>
</svg>
